<?xml version="1.0" encoding="iso-8859-1"?>
<!-- Generator: Adobe Illustrator 15.1.0, SVG Export Plug-In . SVG Version: 6.00 Build 0)  -->
<!DOCTYPE svg PUBLIC "-//W3C//DTD SVG 1.0//EN" "http://www.w3.org/TR/2001/REC-SVG-20010904/DTD/svg10.dtd">
<svg version="1.0" id="Ebene_1" xmlns="http://www.w3.org/2000/svg" xmlns:xlink="http://www.w3.org/1999/xlink" x="0px" y="0px"
	 width="310.450px" height="300.450px" viewBox="0 -1 40.551 42.551"
	 xml:space="preserve">

<path fill="#9C9186" d="M20.275,0C9.077,0,0,9.078,0,20.275C0,31.473,9.077,40.55,20.275,40.55c11.199,0,20.276-9.077,20.276-20.275
	C40.551,9.078,31.474,0,20.275,0z M3.958,19.514l1.646-9.338h9.338l-1.646,9.338H3.958z M13.24,29.613l4.062-19.438h9.339
	l-4.09,19.438H13.24z M31.354,29.613c-3.131,0-5.669-2.538-5.669-5.668c0-3.133,2.539-5.67,5.669-5.67s5.669,2.54,5.669,5.67
	C37.024,27.075,34.485,29.613,31.354,29.613z"/>
</svg>
